<svg width="24" height="24" viewBox="0 0 24 24" fill="none" xmlns="http://www.w3.org/2000/svg">
<path d="M1.36985 0H22.6302C23.3508 0 24 0.649179 24 1.36985V22.6301C24 23.3508 23.3508 24 22.6302 24H1.36985C0.649178 24 0 23.3508 0 22.6301V1.36985C0 0.649179 0.649178 0 1.36985 0ZM17.0435 13.4759H20.3586L20.5027 10.305H17.0435V7.9631C17.0435 7.06255 17.2234 6.55751 18.3765 6.55751H20.3944L20.467 3.60219C20.467 3.60219 19.5664 3.45806 18.2692 3.45806C15.0983 3.45806 13.6927 5.44018 13.6927 7.56645V10.305H11.3508V13.4759H13.6927V22.2681H17.0435V13.4759Z" fill="#262626"/>
</svg>
