<svg width="56" height="61" viewBox="0 0 56 61" fill="none" xmlns="http://www.w3.org/2000/svg">
<path d="M55.8965 1.43729C55.7652 1.18073 55.5238 0.996658 55.2409 0.936573C52.3637 0.314734 48.5112 0 43.7937 0C39.0414 0 33.5939 0.33667 28.8465 0.922266C14.1358 2.73723 3.86165 12.9318 3.86165 25.7109V43.5249L0.099009 57.3989C-0.314234 58.923 0.603977 60.4929 2.14785 60.903C3.69075 61.3093 5.28096 60.4023 5.69421 58.8801L7.96511 50.5082H27.0342C40.8769 50.5082 52.1377 39.3847 52.1377 25.7109C52.1377 19.3562 52.1377 10.6533 55.9168 2.25464C56.0346 1.99332 56.0269 1.69193 55.8965 1.43729ZM3.82882 58.3861C3.69075 58.8934 3.16164 59.1958 2.64702 59.0603C2.13143 58.9221 1.82536 58.4013 1.96343 57.892L4.42744 48.6541C4.81848 49.295 5.39103 49.81 6.08042 50.1324L3.82882 58.3861ZM47.6452 8.48447C47.5747 8.51022 41.8385 10.679 33.6016 17.3743C38.9815 16.8135 43.4818 18.0533 43.7136 18.1172C44.2263 18.2622 44.5227 18.7896 44.3769 19.2951C44.2552 19.7148 43.869 19.9885 43.448 19.9885C43.3602 19.9885 43.2714 19.9761 43.1835 19.9522C43.1217 19.9341 36.9424 18.2508 30.7128 19.8235C29.4335 20.9556 28.1136 22.1792 26.7513 23.524C25.1659 25.091 23.7437 26.6027 22.4489 28.0562C32.3078 26.1287 41.3606 28.4949 41.7709 28.6055C42.2856 28.7448 42.5887 29.2674 42.4487 29.7767C42.3319 30.2011 41.9418 30.4796 41.517 30.4796C41.433 30.4796 41.348 30.4682 41.2631 30.4462C41.1598 30.4186 30.7582 27.6909 20.5285 30.4462C20.4792 30.4596 20.429 30.4615 20.3798 30.4663C17.771 33.6155 15.8496 36.3823 14.4824 38.5921C24.3307 36.575 32.7279 38.9908 33.1044 39.1033C33.6152 39.255 33.9048 39.7862 33.7523 40.2898C33.6268 40.7037 33.2434 40.9708 32.8273 40.9708C32.7356 40.9708 32.6429 40.9574 32.5502 40.9307C32.4565 40.904 23.23 38.2555 13.1509 40.8554C12.0078 42.9212 11.5375 44.1305 11.525 44.1629C11.3811 44.5473 11.0123 44.7857 10.6203 44.7857C10.5093 44.7857 10.3963 44.7657 10.2853 44.7266C9.78512 44.5444 9.53023 43.996 9.71367 43.5029C9.76871 43.358 10.3191 41.9274 11.6544 39.5535C13.428 30.4481 11.6273 22.1859 11.608 22.1029C11.4931 21.5889 11.8214 21.0796 12.3418 20.9661C12.8661 20.8449 13.3778 21.1759 13.4937 21.69C13.5603 21.9875 14.8667 27.9436 14.1821 35.4782C15.5474 33.4553 17.2756 31.1243 19.4577 28.5531C21.0923 18.7353 19.3505 10.7401 19.3322 10.658C19.2173 10.144 19.5456 9.63468 20.066 9.52023C20.5864 9.4096 21.102 9.73101 21.2179 10.2451C21.2883 10.5598 22.7328 17.1835 21.7692 25.9417C22.8834 24.7238 24.0748 23.4706 25.3851 22.1764C26.6258 20.9508 27.8269 19.8359 29 18.7839V18.7763C30.8084 12.5236 29.0502 7.98757 29.0318 7.94275C28.8368 7.45348 29.0791 6.89935 29.5745 6.70575C30.0669 6.50928 30.6288 6.74771 30.8267 7.23698C30.8992 7.41628 32.3706 11.153 31.4611 16.6437C40.4066 9.1559 46.6613 6.8097 46.9761 6.69525C47.4762 6.51595 48.0304 6.76488 48.2148 7.25987C48.4002 7.75295 48.1443 8.30135 47.6452 8.48447Z" fill="#F6F6F6"/>
</svg>
