<svg width="32" height="32" viewBox="0 0 32 32" fill="none" xmlns="http://www.w3.org/2000/svg">
<path fill-rule="evenodd" clip-rule="evenodd" d="M14.3977 1.06266C14.9862 -0.354219 16.9869 -0.354219 17.5754 1.06266L20.6753 8.52645C20.9253 9.12875 21.5119 9.52109 22.1623 9.52109H30.3142C31.8131 9.52109 32.5637 11.3392 31.5038 12.4025L24.9107 19.0169C24.497 19.432 24.3402 20.0394 24.5008 20.6038L27.1155 29.7846C27.5569 31.3348 25.834 32.5967 24.4968 31.7024L16.8802 26.6081C16.339 26.2462 15.634 26.2462 15.0928 26.6083L7.48885 31.694C6.14745 32.591 4.41881 31.3251 4.86172 29.7701L7.47218 20.6038C7.63292 20.0394 7.47601 19.432 7.0623 19.0169L0.501765 12.4351C-0.570114 11.3598 0.189035 9.52109 1.70492 9.52109H9.81067C10.4611 9.52109 11.0477 9.12875 11.2978 8.52645L14.3977 1.06266Z" fill="white"/>
</svg>
