<svg width="61" height="61" viewBox="0 0 61 61" fill="none" xmlns="http://www.w3.org/2000/svg">
<path d="M37.1115 54.1368C36.3491 54.7113 35.5385 55.3163 34.8498 55.9162H40.6694C41.3434 55.9162 41.9898 56.184 42.4664 56.6607C42.943 57.1374 43.2107 57.7839 43.2107 58.4581C43.2107 59.1322 42.943 59.7788 42.4664 60.2555C41.9898 60.7322 41.3434 61 40.6694 61H30.5041C29.8301 61 29.1837 60.7322 28.7071 60.2555C28.2305 59.7788 27.9628 59.1322 27.9628 58.4581C27.9628 54.6452 31.203 52.2151 34.0619 50.0697C35.9679 48.6412 38.1281 47.0194 38.1281 45.7485C38.1281 45.0743 37.8603 44.4278 37.3837 43.9511C36.9071 43.4744 36.2607 43.2066 35.5867 43.2066C34.9127 43.2066 34.2663 43.4744 33.7898 43.9511C33.3132 44.4278 33.0454 45.0743 33.0454 45.7485C33.0454 46.4226 32.7777 47.0692 32.3011 47.5459C31.8245 48.0226 31.1781 48.2904 30.5041 48.2904C29.8301 48.2904 29.1837 48.0226 28.7071 47.5459C28.2305 47.0692 27.9628 46.4226 27.9628 45.7485C27.9628 43.726 28.766 41.7864 30.1958 40.3563C31.6255 38.9261 33.5647 38.1227 35.5867 38.1227C37.6087 38.1227 39.5479 38.9261 40.9777 40.3563C42.4075 41.7864 43.2107 43.726 43.2107 45.7485C43.2107 49.5614 39.9705 51.9914 37.1115 54.1368ZM58.4587 38.1227C57.7847 38.1227 57.1383 38.3905 56.6617 38.8672C56.1851 39.3439 55.9174 39.9905 55.9174 40.6646V48.2904H53.376C52.702 48.2904 52.0556 48.0226 51.579 47.5459C51.1024 47.0692 50.8347 46.4226 50.8347 45.7485V40.6646C50.8347 39.9905 50.567 39.3439 50.0904 38.8672C49.6138 38.3905 48.9674 38.1227 48.2934 38.1227C47.6194 38.1227 46.973 38.3905 46.4964 38.8672C46.0198 39.3439 45.752 39.9905 45.752 40.6646V45.7485C45.752 47.771 46.5553 49.7106 47.9851 51.1407C49.4148 52.5708 51.354 53.3742 53.376 53.3742H55.9174V58.4581C55.9174 59.1322 56.1851 59.7788 56.6617 60.2555C57.1383 60.7322 57.7847 61 58.4587 61C59.1327 61 59.7791 60.7322 60.2557 60.2555C60.7323 59.7788 61 59.1322 61 58.4581V40.6646C61 39.9905 60.7323 39.3439 60.2557 38.8672C59.7791 38.3905 59.1327 38.1227 58.4587 38.1227ZM33.0454 30.497V17.7874C33.0454 17.1132 32.7777 16.4667 32.3011 15.9899C31.8245 15.5132 31.1781 15.2454 30.5041 15.2454C29.8301 15.2454 29.1837 15.5132 28.7071 15.9899C28.2305 16.4667 27.9628 17.1132 27.9628 17.7874V27.955H20.3388C19.6648 27.955 19.0184 28.2228 18.5418 28.6995C18.0652 29.1763 17.7975 29.8228 17.7975 30.497C17.7975 31.1711 18.0652 31.8177 18.5418 32.2944C19.0184 32.7711 19.6648 33.0389 20.3388 33.0389H30.5041C31.1781 33.0389 31.8245 32.7711 32.3011 32.2944C32.7777 31.8177 33.0454 31.1711 33.0454 30.497ZM58.4587 5.07776C57.7847 5.07776 57.1383 5.34557 56.6617 5.82227C56.1851 6.29897 55.9174 6.94552 55.9174 7.61968V13.6542C53.2695 9.65721 49.7168 6.34089 45.5477 3.97432C41.3786 1.60774 36.7104 0.257577 31.9219 0.0333693C27.1334 -0.190838 22.3596 0.717228 17.9876 2.68389C13.6157 4.65055 9.76887 7.62041 6.75926 11.3525C3.74965 15.0846 1.66204 19.4738 0.665811 24.1639C-0.330416 28.8541 -0.207196 33.7131 1.02547 38.3467C2.25814 42.9803 4.56554 47.258 7.76044 50.8326C10.9553 54.4073 14.9478 57.1783 19.4137 58.9207C19.7089 59.0346 20.0225 59.0932 20.3388 59.0936C20.9318 59.0945 21.5065 58.8879 21.9633 58.5096C22.4201 58.1314 22.7303 57.6052 22.8401 57.0223C22.9499 56.4394 22.8524 55.8364 22.5646 55.3178C22.2767 54.7991 21.8165 54.3976 21.2638 54.1826C17.4722 52.7161 14.0877 50.3612 11.3943 47.3156C8.70091 44.27 6.77728 40.6225 5.78489 36.6794C4.7925 32.7363 4.76032 28.6126 5.69103 24.6545C6.62175 20.6963 8.4882 17.0193 11.1337 13.932C13.7792 10.8447 17.1266 8.4372 20.8949 6.91169C24.6631 5.38617 28.7422 4.78712 32.7898 5.16481C36.8375 5.5425 40.7354 6.88591 44.1565 9.08228C47.5776 11.2786 50.422 14.2639 52.451 17.7874H45.752C45.078 17.7874 44.4316 18.0552 43.9551 18.5319C43.4785 19.0086 43.2107 19.6551 43.2107 20.3293C43.2107 21.0034 43.4785 21.65 43.9551 22.1267C44.4316 22.6034 45.078 22.8712 45.752 22.8712H53.376C55.398 22.8712 57.3372 22.0678 58.767 20.6377C60.1968 19.2076 61 17.2679 61 15.2454V7.61968C61 6.94552 60.7323 6.29897 60.2557 5.82227C59.7791 5.34557 59.1327 5.07776 58.4587 5.07776Z" fill="#F6F6F6"/>
</svg>
