<svg width="30" height="24" viewBox="0 0 30 24" fill="none" xmlns="http://www.w3.org/2000/svg">
<path fill-rule="evenodd" clip-rule="evenodd" d="M9.60637 23.7997C20.8325 23.7997 26.9729 14.642 26.9729 6.70143C26.9729 6.44075 26.9729 6.18203 26.9551 5.92427C28.1495 5.07485 29.1804 4.0202 30 2.81345C28.8873 3.29967 27.7048 3.61854 26.4954 3.75912C27.7687 3.00783 28.7222 1.82751 29.1789 0.43476C27.98 1.13479 26.6695 1.62885 25.3025 1.89393C22.9909 -0.525441 19.1249 -0.64266 16.666 1.63318C15.0819 3.10062 14.408 5.28854 14.9004 7.37546C9.99312 7.13236 5.42055 4.85069 2.3206 1.09716C0.700713 3.8431 1.52925 7.35463 4.21121 9.1179C3.23988 9.09007 2.28936 8.83259 1.44 8.36688V8.44315C1.44149 11.3033 3.48977 13.7661 6.33685 14.3329C5.4384 14.5745 4.49532 14.6095 3.582 14.4353C4.38079 16.8839 6.67302 18.5611 9.28359 18.6094C7.12225 20.2819 4.45219 21.19 1.70329 21.1871C1.21836 21.1857 0.733437 21.1578 0.25 21.1007C3.04204 22.864 6.28925 23.7997 9.60637 23.7953" fill="#262626"/>
</svg>
